<?xml version="1.0" encoding="iso-8859-1"?>
<!-- Generator: Adobe Illustrator 16.0.4, SVG Export Plug-In . SVG Version: 6.00 Build 0)  -->
<!DOCTYPE svg PUBLIC "-//W3C//DTD SVG 1.1//EN" "http://www.w3.org/Graphics/SVG/1.1/DTD/svg11.dtd">
<svg version="1.1" xmlns="http://www.w3.org/2000/svg" xmlns:xlink="http://www.w3.org/1999/xlink" x="0px" y="0px" width="200px"
	 height="150px" viewBox="0 0 200 150" style="enable-background:new 0 0 200 150;" xml:space="preserve">
<g id="_x30_117">
	<path d="M113.873,59.89l-1.605-1.191l-9.689,13.06l1.605,1.191L113.873,59.89z M101,35.997h-2v12.335H79.268v7.325l15.86,21.852
		v14.057h3.873v15.178l-1.979-2.13l-1.465,1.361l4.443,4.782l4.443-4.782l-1.465-1.361l-1.979,2.13V91.564h4.408V77.508
		l15.859-21.852v-7.325H101V35.997z M81.268,50.332H99v4H81.268V50.332z M97.128,89.564V76.859L82.229,56.332H99l0.001,33.233
		H97.128z M103.409,76.859v12.705h-2.408L101,56.332h17.308L103.409,76.859z M119.269,50.332v4H101v-4H119.269z M71.999,19.935
		c-3.342,0-6.061,2.719-6.061,6.061s2.719,6.061,6.061,6.061s6.061-2.719,6.061-6.061S75.34,19.935,71.999,19.935z M71.999,30.056
		c-2.239,0-4.061-1.822-4.061-4.061s1.822-4.061,4.061-4.061s4.061,1.822,4.061,4.061S74.237,30.056,71.999,30.056z M85.999,32.056
		L85.999,32.056c3.343,0,6.062-2.719,6.062-6.061S89.342,19.935,86,19.935h-0.001c-3.342,0-6.061,2.719-6.061,6.061
		S82.657,32.056,85.999,32.056z M85.999,21.935c2.238,0,4.061,1.822,4.061,4.061s-1.822,4.06-4.061,4.061
		c-2.238,0-4.059-1.822-4.059-4.061S83.761,21.936,85.999,21.935z M100.001,32.056c3.341,0,6.06-2.719,6.06-6.061
		s-2.719-6.061-6.06-6.061c-3.342,0-6.061,2.719-6.061,6.061S96.659,32.056,100.001,32.056z M100.001,21.935
		c2.238,0,4.06,1.822,4.06,4.061s-1.821,4.061-4.06,4.061c-2.239,0-4.061-1.822-4.061-4.061S97.762,21.935,100.001,21.935z
		 M114.001,32.056c3.342,0,6.061-2.719,6.061-6.061s-2.719-6.061-6.061-6.061s-6.061,2.719-6.061,6.061
		S110.659,32.056,114.001,32.056z M114.001,21.935c2.239,0,4.061,1.822,4.061,4.061s-1.821,4.061-4.061,4.061
		s-4.061-1.822-4.061-4.061S111.762,21.935,114.001,21.935z M128.002,32.056c3.342,0,6.061-2.719,6.061-6.061
		s-2.719-6.061-6.061-6.061s-6.061,2.719-6.061,6.061S124.66,32.056,128.002,32.056z M128.002,21.935
		c2.239,0,4.061,1.822,4.061,4.061s-1.821,4.061-4.061,4.061s-4.061-1.822-4.061-4.061S125.763,21.935,128.002,21.935z
		 M71.999,119.943c-2.795,0-5.061,2.266-5.061,5.061s2.266,5.062,5.061,5.062s5.061-2.267,5.061-5.062
		S74.793,119.943,71.999,119.943z M86,119.943L86,119.943L86,119.943c-2.796,0-5.062,2.266-5.062,5.061s2.266,5.062,5.061,5.062h0h0
		c2.795,0,5.061-2.267,5.061-5.062S88.794,119.943,86,119.943z M100.001,119.943c-2.795,0-5.061,2.266-5.061,5.061
		s2.266,5.062,5.061,5.062s5.06-2.267,5.06-5.062S102.796,119.943,100.001,119.943z M114.001,119.943
		c-2.795,0-5.061,2.266-5.061,5.061s2.266,5.062,5.061,5.062s5.061-2.267,5.061-5.062S116.796,119.943,114.001,119.943z
		 M128.002,119.943c-2.795,0-5.061,2.266-5.061,5.061s2.266,5.062,5.061,5.062s5.061-2.267,5.061-5.062
		S130.797,119.943,128.002,119.943z"/>
</g>
<g id="Layer_1">
</g>
</svg>
